<?xml version="1.0" encoding="utf-8"?>
<!-- Generator: Adobe Illustrator 27.9.0, SVG Export Plug-In . SVG Version: 6.00 Build 0)  -->
<svg version="1.1" id="Layer_1" xmlns="http://www.w3.org/2000/svg" xmlns:xlink="http://www.w3.org/1999/xlink" x="0px" y="0px"
	 viewBox="0 0 20 20" style="enable-background:new 0 0 20 20;" xml:space="preserve">
<style type="text/css">
	.st0{fill:#FFFFFF;}
</style>
<path class="st0" d="M18.2,10.9h-10c-0.4,0-0.8-0.3-0.8-0.8s0.3-0.8,0.8-0.8h10c0.4,0,0.8,0.3,0.8,0.8S18.6,10.9,18.2,10.9z"/>
<path class="st0" d="M15.7,13.3c-0.2,0-0.4-0.1-0.5-0.2c-0.3-0.3-0.3-0.8,0-1.1l1.9-1.9l-1.9-1.9c-0.3-0.3-0.3-0.8,0-1.1
	s0.8-0.3,1.1,0l2.4,2.4c0.1,0.1,0.2,0.3,0.2,0.5s-0.1,0.4-0.2,0.5l-2.4,2.4C16.1,13.2,15.9,13.3,15.7,13.3z"/>
<path class="st0" d="M7.8,18.5c-6.7,0-6.7-2.7-6.7-8.5s0-8.5,6.7-8.5c4.6,0,6.3,1.2,6.6,4.7c0,0.4-0.3,0.8-0.7,0.8
	c-0.4,0-0.8-0.3-0.8-0.7C12.7,4.1,12.1,3,7.8,3c-5.2,0-5.2,1.2-5.2,7s0,7,5.2,7c4.3,0,4.9-1,5.1-3.4c0-0.4,0.4-0.7,0.8-0.7
	c0.4,0,0.7,0.4,0.7,0.8C14.1,17.3,12.4,18.5,7.8,18.5z"/>
</svg>
